
<svg xmlns="http://www.w3.org/2000/svg" version="1.1" xmlns:xlink="http://www.w3.org/1999/xlink" preserveAspectRatio="none" x="0px" y="0px" width="833px" height="770px" viewBox="0 0 833 770">
<defs>
<linearGradient id="Gradient_1" gradientUnits="userSpaceOnUse" x1="569.4000000000001" y1="146.25" x2="679.5" y2="36.15" spreadMethod="pad">
<stop  offset="0%" stop-color="#FF3300"/>

<stop  offset="100%" stop-color="#FFFF00"/>
</linearGradient>

<linearGradient id="Gradient_2" gradientUnits="userSpaceOnUse" x1="428.65" y1="189.45" x2="428.65" y2="351.65000000000003" spreadMethod="pad">
<stop  offset="0%" stop-color="#FF3300"/>

<stop  offset="100%" stop-color="#FFFF00"/>
</linearGradient>

<g id="Layer0_0_FILL">
<path fill="#00CC00" stroke="none" d="
M 151.1 146.25
Q 155 142.35 159.15 139.1
L 148.35 138.8
Q 147 142.15 146.15 143.5 145.3 144.9 130.4 164.75
L 139.3 156.95
Q 148.7 148.7 151.1 146.25
M 131.1 138.2
Q 129.4 142.3 128.35 144 127.3 145.7 108.95 170.25
L 119.95 160.6
Q 131.5 150.4 134.5 147.4 139.3 142.6 144.4 138.55
L 131.1 138.2
M 119.35 35.55
L 108.35 25.9
Q 126.7 50.45 127.75 52.15 128.8 53.85 130.5 57.95
L 143.8 57.6
Q 138.7 53.55 133.9 48.75 130.9 45.75 119.35 35.55
M 138.7 39.2
L 129.8 31.4
Q 144.7 51.25 145.55 52.65 146.4 54 147.75 57.35
L 158.55 57.05
Q 154.4 53.8 150.5 49.9 148.1 47.45 138.7 39.2
M 79.4 101.9
Q 78.1 101.9 66.8 105.15 55.05 108.55 54.15 108.7 52.65 108.9 49.2 108.65
L 46 108.35 50.4 115.55
Q 51.2 116.85 50.95 122.85 50.75 128.6 51.8 129.85 52.85 131.05 58.8 131.75 64.75 132.4 65.75 133.6 66.8 134.8 67.65 139.55 68.5 144.3 69.5 145.5 70.95 147.15 74.95 147.65 78.65 148.05 81.4 147.2 83.7 146.5 92 138.65 99.6 131.4 101.5 128.8 102.8 127 102.15 124.05 101.85 122.8 100.5 119.6 99.75 117.75 97 116.75 94.2 115.7 90.95 116.2 88.65 116.55 81.3 122.85 73.85 129.15 71.9 129.5 67.25 130.3 68.8 124.75 69.1 123.7 78.1 118 87 112.4 87.2 110.75 87.45 108.55 84.3 105.2 81.25 101.9 79.4 101.9
M 32.6 64.45
Q 32.35 65.3 32.35 68.5 32.35 70.25 34.3 75 36.55 80.4 36.8 81.45 37.15 82.95 35.1 88.2 33.05 93.5 33.4 95.4 33.9 98 37.5 100.6 40.8 102.95 43.6 103.25 45.95 103.5 61.4 101.1 76.5 98.75 77.65 98.15 78.65 97.65 77.8 92.35 76.95 87.1 75.65 85.55 74.65 84.35 60.15 84.35 45 84.35 44.6 84.2 43.25 83.7 42.7 82.55 42.1 81.35 42.6 80.1 42.95 79.25 57.6 79.95 72.85 80.6 74.6 79.75 76.85 78.65 76.25 72.7 75.8 67.9 74.6 65.1 73.9 63.5 64.6 61.3 56.05 59.3 52.8 59.3 46.6 59.3 44.35 59.45 37.9 59.95 35.1 61.7 33.1 62.55 32.6 64.45
M 97.75 46.4
Q 93.45 46.9 91.3 48.4 89.85 49.45 88.9 51.65 88.1 54.05 87.55 54.9 86.5 56.65 80.05 62.05
L 82.55 62.65
Q 85.25 63.3 86.55 63.75 87.2 63.95 87.45 67.85 87.65 70.2 87.95 76.55 88.9 89.6 92.65 92.35 94.7 93.8 100.5 94.5 106.8 95.25 109.7 93.7 112.35 92.3 112.15 77.55
L 111.4 63.05 99.5 60.35 110.05 56.6
Q 105.95 50.45 103.9 47.7 102.5 45.8 97.75 46.4
M 163.05 118.65
Q 163 116.85 163.2 116.2 163.4 115.6 164.85 113.45 165.6 112.4 166.25 111.45
L 150.6 111.1 152.3 112.8
Q 154 114.7 154 115.55 154 116.9 152.95 119.25
L 163.2 120.3
Q 163.1 119.55 163.05 118.65
M 168.05 90.85
L 167.3 86.55 151.95 83.15 166.95 80.1
Q 164.9 71.55 163.9 69.85 163.3 68.8 151.2 71.3 138.85 74.15 138 74.3 136.95 74.5 133.95 74.6
L 131.15 74.65 132.25 75.65
Q 133.6 77 134.9 78.75 136.2 80.5 136.2 89.85 136.2 94.55 135.95 98.85
L 141.05 91.35 141.15 97.7
Q 141.45 104.25 142.75 105.3 144.05 106.35 155.45 105.75 161.15 105.45 166.6 104.95 167.65 99.85 168.3 97.15 168.7 95.45 168.05 90.85 Z"/>

<path fill="#006600" stroke="none" d="
M 171.75 78
Q 168.95 64.85 167.45 64.1 166.4 63.55 152.6 66.15 138.3 68.85 136.45 68.5 131 67.5 130.15 67.25 126.4 66.3 124.85 64.75 124.3 64.2 118.15 54.2 112.6 45.1 110.2 43.95 107.1 42.45 99.6 42.3 92 42.15 89.75 43.65 87.85 44.95 83.5 50.9 81.35 53.9 79.55 56.6 75.1 55.9 69.75 55.25 59 54 54.3 54.2 45.1 54.45 40.35 54.8 31.75 55.4 30.45 56.9 28.95 58.7 27.5 62.65 26.1 66.6 26.35 68.15 26.4 68.45 29.3 73.5 32 78.1 31.8 81.1 31.7 83.15 29.15 90.75 27 97.25 27.75 99.15 28.55 101.15 33.4 104.9 39.6 109.6 40.7 110.75 45.2 115.45 46 125.7 46.4 131.35 46.55 132.1 47.05 134.85 48.5 135.3 50 135.75 56.05 135.55 60.65 135.4 61.8 137.35 62.35 138.3 63.75 144.1 64.85 148.75 67.25 150.3 70.35 152.35 83.7 151.95 97.05 151.55 101.65 149.25 104.8 147.7 115.35 139.25 125.45 131.15 127.25 130.5 129.6 129.65 147.9 129.85 157.05 129.95 165.75 130.2 168.4 125.35 170.9 119.05 175.9 106.55 175.25 99.5 174.45 90.65 171.75 78
M 167.3 86.55
L 168.05 90.85
Q 168.7 95.45 168.3 97.15 167.65 99.85 166.6 104.95 161.15 105.45 155.45 105.75 144.05 106.35 142.75 105.3 141.45 104.25 141.15 97.7
L 141.05 91.35 135.95 98.85
Q 136.2 94.55 136.2 89.85 136.2 80.5 134.9 78.75 133.6 77 132.25 75.65
L 131.15 74.65 133.95 74.6
Q 136.95 74.5 138 74.3 138.85 74.15 151.2 71.3 163.3 68.8 163.9 69.85 164.9 71.55 166.95 80.1
L 151.95 83.15 167.3 86.55
M 163.2 116.2
Q 163 116.85 163.05 118.65 163.1 119.55 163.2 120.3
L 152.95 119.25
Q 154 116.9 154 115.55 154 114.7 152.3 112.8
L 150.6 111.1 166.25 111.45
Q 165.6 112.4 164.85 113.45 163.4 115.6 163.2 116.2
M 91.3 48.4
Q 93.45 46.9 97.75 46.4 102.5 45.8 103.9 47.7 105.95 50.45 110.05 56.6
L 99.5 60.35 111.4 63.05 112.15 77.55
Q 112.35 92.3 109.7 93.7 106.8 95.25 100.5 94.5 94.7 93.8 92.65 92.35 88.9 89.6 87.95 76.55 87.65 70.2 87.45 67.85 87.2 63.95 86.55 63.75 85.25 63.3 82.55 62.65
L 80.05 62.05
Q 86.5 56.65 87.55 54.9 88.1 54.05 88.9 51.65 89.85 49.45 91.3 48.4
M 32.35 68.5
Q 32.35 65.3 32.6 64.45 33.1 62.55 35.1 61.7 37.9 59.95 44.35 59.45 46.6 59.3 52.8 59.3 56.05 59.3 64.6 61.3 73.9 63.5 74.6 65.1 75.8 67.9 76.25 72.7 76.85 78.65 74.6 79.75 72.85 80.6 57.6 79.95 42.95 79.25 42.6 80.1 42.1 81.35 42.7 82.55 43.25 83.7 44.6 84.2 45 84.35 60.15 84.35 74.65 84.35 75.65 85.55 76.95 87.1 77.8 92.35 78.65 97.65 77.65 98.15 76.5 98.75 61.4 101.1 45.95 103.5 43.6 103.25 40.8 102.95 37.5 100.6 33.9 98 33.4 95.4 33.05 93.5 35.1 88.2 37.15 82.95 36.8 81.45 36.55 80.4 34.3 75 32.35 70.25 32.35 68.5
M 66.8 105.15
Q 78.1 101.9 79.4 101.9 81.25 101.9 84.3 105.2 87.45 108.55 87.2 110.75 87 112.4 78.1 118 69.1 123.7 68.8 124.75 67.25 130.3 71.9 129.5 73.85 129.15 81.3 122.85 88.65 116.55 90.95 116.2 94.2 115.7 97 116.75 99.75 117.75 100.5 119.6 101.85 122.8 102.15 124.05 102.8 127 101.5 128.8 99.6 131.4 92 138.65 83.7 146.5 81.4 147.2 78.65 148.05 74.95 147.65 70.95 147.15 69.5 145.5 68.5 144.3 67.65 139.55 66.8 134.8 65.75 133.6 64.75 132.4 58.8 131.75 52.85 131.05 51.8 129.85 50.75 128.6 50.95 122.85 51.2 116.85 50.4 115.55
L 46 108.35 49.2 108.65
Q 52.65 108.9 54.15 108.7 55.05 108.55 66.8 105.15 Z"/>
</g>

<g id="Layer0_1_FILL">
<path fill="#CC0000" stroke="none" d="
M 273.45 11.15
Q 264.8 11.2 253.45 15.9 239.95 21.45 230.45 30.95 220.5 40.9 215.95 53.8 211.75 65.6 211.75 80.95 211.75 95.9 216.25 107.5 220.9 119.6 231.05 129.75
L 233.1 131.7 265.4 98 274.6 106 274.2 66.8 234.6 68.8 242.8 76.4 225.9 94.05
Q 216.65 66.1 232.15 43.85 248.2 20.8 284.85 12.95 283.3 11.15 273.45 11.15
M 330.35 33.85
L 328.3 31.9 296 65.6 286.8 57.6 287.2 96.8 326.8 94.8 318.6 87.2 335.5 69.55
Q 344.75 97.5 329.25 119.75 313.2 142.8 276.55 150.65 278.1 152.45 287.95 152.45 296.6 152.4 307.95 147.7 321.45 142.15 330.95 132.65 340.9 122.7 345.45 109.8 349.65 98 349.65 82.65 349.65 67.7 345.15 56.1 340.5 44 330.35 33.85 Z"/>
</g>

<g id="Layer0_2_FILL">
<path fill="#CC0000" stroke="none" d="
M 398.75 43.3
Q 397.9560546875 44.09609375 397.15 44.9 377.75 64.35 377.75 91.8 377.75 119.25 397.15 138.65 397.563671875 139.063671875 397.95 139.45
L 446.45 91 398.75 43.3
M 490.9 138.65
Q 491.7060546875 137.84609375 492.45 137
L 446.45 91 397.95 139.45
Q 417.1837890625 158.1 444.05 158.1 471.5 158.1 490.9 138.65
M 510.35 91.8
Q 510.35 64.9337890625 491.7 45.7
L 446.45 91 492.45 137
Q 510.35 118.1123046875 510.35 91.8
M 491.7 45.7
Q 491.313671875 45.313671875 490.9 44.9 471.5 25.5 444.05 25.5 417.7376953125 25.5 398.75 43.3
L 446.45 91 491.7 45.7 Z"/>
</g>

<g id="Layer0_3_FILL">
<path fill="#0099CC" stroke="none" d="
M 314.85 236.95
L 312.1 234.4 293.55 266.05 312.1 298.1 315.85 295.75 302.35 265.85 314.85 236.95
M 511.3 234.4
L 508.55 236.95 521.05 265.85 507.55 295.75 511.3 298.1 529.85 266.05 511.3 234.4
M 469.75 323.1
Q 469.75 322.9 451.8 305.05 442.85 296.1 433.9 287.25
L 443.8 337.5 469.75 323.1
M 353.65 323.1
L 379.6 337.5 389.5 287.25
Q 380.55 296.1 371.6 305.05 353.65 322.9 353.65 323.1
M 352.4 218.3
L 347.9 214.1 317.5 265.95 347.9 318.45 354 314.6 331.9 265.65 352.4 218.3
M 371.6 226.7
Q 380.55 235.65 389.5 244.5
L 379.6 194.25 353.65 208.65
Q 353.65 208.85 371.6 226.7
M 420.25 277.85
Q 424.4 273.75 424.4 267.9 424.4 262.05 420.25 257.9 416.15 253.8 410.3 253.8 404.45 253.8 400.3 257.9 396.2 262.05 396.2 267.9 396.2 273.75 400.3 277.85 404.45 282 410.3 282 416.15 282 420.25 277.85
M 451.8 226.7
Q 469.75 208.85 469.75 208.65
L 443.8 194.25 433.9 244.5
Q 442.85 235.65 451.8 226.7
M 475.5 214.1
L 471 218.3 491.5 265.65 469.4 314.6 475.5 318.45 505.9 265.95 475.5 214.1 Z"/>
</g>

<g id="Layer0_4_FILL">
<path fill="url(#Gradient_1)" stroke="none" d="
M 657.5 22.35
L 657.5 15.75
Q 657.501953125 13.531640625 656.95 11.5
L 625.85 11.5 624.2 15.2
Q 621.505078125 15.2107421875 618.9 15.35
L 618.9 15.35
Q 590.2375 17.1833984375 569.4 37.95
L 569.35 38
Q 546.601953125 60.8216796875 546.6 93.05 546.648828125 119.6455078125 562.15 139.85
L 562.15 139.9
Q 563.7349609375 141.92890625 565.45 143.9
L 553.45 170.25 588.6 170.25 591.55 163.85
Q 606.548046875 170.8619140625 624.45 170.9 656.67890625 170.894140625 679.45 148.05
L 679.45 148.05
Q 702.294140625 125.27890625 702.3 93.05 702.3041015625 60.8080078125 679.45 37.95 671.52578125 30.0314453125 662.4 24.9 660.0029296875 23.525 657.5 22.35
M 665.3 52.1
Q 682.2955078125 69.0916015625 682.3 93.05 682.30546875 117.003515625 665.35 133.9
L 665.3 133.95
Q 661.584765625 137.6978515625 657.5 140.6
L 657.5 45.45
Q 661.58046875 48.376953125 665.3 52.1
M 583.5 52.1
L 583.5 52.1
Q 596.9578125 38.727734375 614.75 35.9
L 581.5 108.8
Q 580.814453125 110.0080078125 580.35 111.25
L 574.9 123.2
Q 566.5580078125 109.858203125 566.6 93.05 566.5978515625 69.0958984375 583.5 52.1
M 625.5 100.75
L 620.3 100.75 625.5 89.35 625.5 100.75
M 625.5 132.75
L 625.5 144.35 651.5 144.35
Q 639.3486328125 150.903515625 624.45 150.9 611.25 151 599.9 145.65
L 605.7 132.75 625.5 132.75 Z"/>
</g>

<g id="Layer0_5_FILL">
<path fill="#000000" stroke="none" d="
M 643.1 349.85
Q 639.4515625 350.595703125 635.65 350.95
L 643.5 351.4
Q 643.290625 350.626171875 643.1 349.85
M 591.9 343.35
L 591.45 344.1 603.55 349.2
Q 603.7580078125 348.6888671875 603.95 348.15 597.7123046875 346.3107421875 591.9 343.35
M 565.6 321.9
Q 559.313671875 314.1654296875 555.3 305.45
L 554.1 306.35 564 323.55 565.6 321.9
M 547.85 287.65
L 549.7 286.95
Q 548.55 280.1908203125 548.55 272.95 548.55 270.69921875 548.65 268.5
L 546.05 269.35 547.85 287.65
M 555 241.15
L 552.25 241.5 547.15 257.25 550 257.1
Q 551.6271484375 248.7828125 555 241.15
M 558 235.15
Q 560.7021484375 230.3083984375 564.15 225.8
L 561.05 225.7 554.85 235.25 558 235.15
M 570.6 217.3
L 571.45 217.5
Q 571.4751953125 217.475 571.5 217.45 572.760546875 216.1921875 574.05 215 578.5615234375 210.8427734375 583.4 207.5
L 579 205.2 570.6 217.3
M 661.85 345.9
Q 661.416796875 344.9201171875 660.95 343.9 656.0724609375 346.2986328125 650.85 347.9 651.028515625 348.378125 651.2 348.85
L 661.85 345.9
M 690.4 324.65
L 700.7 307.45
Q 699.59296875 306.64140625 698.5 305.8 694.44296875 314.52578125 688.05 322.25 689.196875 323.41953125 690.4 324.65
M 706.9 270.45
Q 706.1505859375 270.2064453125 705.4 269.95 705.45 271.444921875 705.45 272.95 705.45 281.488671875 703.85 289.35 704.8326171875 289.781640625 705.8 290.2
L 706.9 270.45
M 676.85 210.95
Q 672.119140625 208.2271484375 670.6 207.55 676.0154296875 211.2701171875 681 216 682.387890625 215.5421875 683.8 215.1 680.35 213 676.85 210.95
M 702.15 241.1
Q 700.5419921875 241.0876953125 698.9 241.05 702.5380859375 249.135546875 704.15 258.05 705.7 258.1939453125 707.25 258.35
L 702.15 241.1
M 690.4 226.55
Q 692.8947265625 229.911328125 694.95 233.4 695.9884765625 233.4 697 233.4
L 693.35 226.45
Q 691.8775390625 226.5263671875 690.4 226.55
M 698.9 241.05
Q 694.0419921875 240.9138671875 689.15 240.5 676.1 239.4 676.1 237.1 676.1 234.8 686.55 233.85 690.7787109375 233.4875 694.95 233.4 692.8947265625 229.911328125 690.4 226.55 685.0837890625 226.7890625 679.65 226.75 665.85 226.65 665.15 224.6 664.45 222.55 674.05 218.65 677.4806640625 217.2205078125 681 216 676.0154296875 211.2701171875 670.6 207.55 669.9 207.25625 669.9 207.4 665.15 209.6 659.85 212.75 649.3 219 646.8 223.55 644.1 228.45 643.6 233.5 643.2 237.8 644.25 238.55 644.8 238.95 647.95 239.95 650.85 241.25 650.85 243.3 650.85 245.65 648.1 248.5 645.4 251.25 644.25 250.65 643.8 250.4 640.35 242.85 637 235.35 635.1 234.5 632.7 233.45 627.85 233.8 623.1 234.1 622.25 235.25 621.55 236.15 620.9 237.25
L 620.4 238.2
Q 619.05 238.3 617.6 238.8 614.65 239.8 614.2 241.85 613.75 243.9 615.2 245.85 615.95 246.8 616.75 247.35
L 618.55 245.3
Q 620.65 243.65 622.25 245.5 624.2 247.75 622.8 250.45 621.4 253.15 618.2 252.85 613.95 252.45 608.95 249.95 603.05 246.9 603.55 243.7 603.95 241.15 607.2 240.3 610.8 239.35 611.65 237.45 612.95 234.55 611.25 229.85 609.75 225.5 606.5 221.7 603.95 218.75 591.25 211.65
L 583.4 207.5
Q 578.5615234375 210.8427734375 574.05 215 572.760546875 216.1921875 571.5 217.45 571.4751953125 217.475 571.45 217.5
L 580.6 219.65
Q 590.45 222.4 590 224.25 589.55 226.1 575.25 226.1
L 564.15 225.8
Q 560.7021484375 230.3083984375 558 235.15
L 566.75 234.85
Q 571.2515625 234.812109375 574.05 235 578.65 235.3552734375 578.65 236.35 578.65 237.29453125 574.05 238.35 570.8580078125 239.101171875 565.45 239.9
L 555 241.15
Q 551.6271484375 248.7828125 550 257.1
L 562 256.6
Q 570.4205078125 256.40078125 574.05 256.75 576.8 257.0181640625 576.8 257.6 576.8 258.192578125 574.05 259.45 570.303125 261.2431640625 561.45 264.3
L 548.65 268.5
Q 548.55 270.69921875 548.55 272.95 548.55 280.1908203125 549.7 286.95
L 567.7 280.15
Q 571.1693359375 278.9791015625 574.05 278.1 587.778125 274.033203125 588.15 277.05 588.5638671875 280.406640625 574.05 291.85 572.782421875 292.8390625 571.4 293.9
L 555.3 305.45
Q 559.313671875 314.1654296875 565.6 321.9
L 573 314.35
Q 573.53125 313.85 574.05 313.35 583.496875 304.6431640625 588.9 302.7 594.6 300.65 600.95 299.25 604.15 298.6 606.15 298.3 602.85 301.95 599.55 304.15 597.5 305.55 596.45 307.55
L 595.85 309.25
Q 591.85 308.2 589.65 308.2 588.3 308.2 585.7 310.4
L 583.4 312.55 587.7 311.95 584.5 317.7 591.1 313.3 588.1 320.65 595.85 316.95 592.95 322.45 595.35 321.5
Q 597.8 320.3 598.05 319.15
L 598.8 314.4 601.7 313.4
Q 605 312.3 606.85 311.85 609.8 311.1 615.65 310 607.25 318.1 604.3 322.85
L 591.9 343.35
Q 597.7123046875 346.3107421875 603.95 348.15 605.528515625 344.3466796875 608.8 337.85 609.9076171875 335.65078125 610.75 333.95 612.423046875 330.618359375 613.1 329.2 614.1142578125 327.0595703125 616.75 322.65 619.3951171875 318.2466796875 621.15 315.85 617.5287109375 329.814453125 616.25 333.2 616.1255859375 333.5294921875 615.95 333.95 614.541015625 337.8521484375 610.55 349.6
L 635.65 350.95
Q 639.4515625 350.595703125 643.1 349.85 640.1236328125 338.932421875 638.65 333.95 637.9900390625 331.569921875 637.65 330.55 636.95 328.5 635.4 322.35
L 634 316.6 637.9 321.3
Q 641.015625 326.5255859375 642.8 329.15 643.6076171875 330.284765625 645.2 333.95 647.3228515625 338.7591796875 650.85 347.9 656.0724609375 346.2986328125 660.95 343.9 659.2240234375 340.0669921875 657.2 335.9 656.7037109375 334.8880859375 656.2 333.95 651.8283203125 325.154296875 649.75 322.85 647.45 320.3 643.4 314.55
L 639.85 309.25 647.15 311.45
Q 648.25 311.85 654.5 313.3
L 655 315.4
Q 655.65 317.8 656.35 319.15 657.45 321.35 661.1 322.85
L 658.9 316.95 665.5 319.9 663.55 314.1 669.55 317.7 667.35 312.55 671.35 312.55
Q 667.35 308.9 665.15 308.55 663.8 308.35 661.75 309.15
L 660 310
Q 657.45 305.95 655.6 304.5
L 648.25 298.65 656.5 299.95
Q 665.5 301.75 669.15 304.5 674.54296875 308.55625 688.05 322.25 694.44296875 314.52578125 698.5 305.8 690.7240234375 300.079296875 683.15 293.95 665.8 280.05 666.95 277.75 668.1 275.45 687.05 282.6 695.5564453125 285.8234375 703.85 289.35 705.45 281.488671875 705.45 272.95 705.45 271.444921875 705.4 269.95 698.295703125 267.623046875 691.15 265 675.4 259.2 675.4 257.6 675.4 256 691.35 257 697.75 257.4427734375 704.15 258.05 702.5380859375 249.135546875 698.9 241.05
M 626.25 239.75
L 623.75 238.85 627.65 238.2 626.25 239.75 Z"/>

<path fill="#FFFFFF" stroke="none" d="
M 599.55 304.15
Q 602.85 301.95 606.15 298.3 604.15 298.6 600.95 299.25 594.6 300.65 588.9 302.7 583.496875 304.6431640625 574.05 313.35 573.53125 313.85 573 314.35
L 565.6 321.9
Q 568.33984375 325.23984375 571.5 328.4 572.7607421875 329.6607421875 574.05 330.85 575.7947265625 332.4634765625 577.6 333.95 584.373046875 339.56171875 591.9 343.35
L 604.3 322.85
Q 607.25 318.1 615.65 310 609.8 311.1 606.85 311.85 605 312.3 601.7 313.4
L 598.8 314.4 598.05 319.15
Q 597.8 320.3 595.35 321.5
L 592.95 322.45 595.85 316.95 588.1 320.65 591.1 313.3 584.5 317.7 587.7 311.95 583.4 312.55 585.7 310.4
Q 588.3 308.2 589.65 308.2 591.85 308.2 595.85 309.25
L 596.45 307.55
Q 597.5 305.55 599.55 304.15
M 610.75 333.95
Q 609.9076171875 335.65078125 608.8 337.85 605.528515625 344.3466796875 603.95 348.15 614.81640625 351.4 627 351.4 631.4291015625 351.4 635.65 350.95
L 610.55 349.6
Q 614.541015625 337.8521484375 615.95 333.95 616.1255859375 333.5294921875 616.25 333.2 617.5287109375 329.814453125 621.15 315.85 619.3951171875 318.2466796875 616.75 322.65 614.1142578125 327.0595703125 613.1 329.2 612.423046875 330.618359375 610.75 333.95
M 637.9 321.3
L 634 316.6 635.4 322.35
Q 636.95 328.5 637.65 330.55 637.9900390625 331.569921875 638.65 333.95 640.1236328125 338.932421875 643.1 349.85 647.0625 349.096484375 650.85 347.9 647.3228515625 338.7591796875 645.2 333.95 643.6076171875 330.284765625 642.8 329.15 641.015625 326.5255859375 637.9 321.3
M 574.05 259.45
Q 576.8 258.192578125 576.8 257.6 576.8 257.0181640625 574.05 256.75 570.4205078125 256.40078125 562 256.6
L 550 257.1
Q 548.9458984375 262.6513671875 548.65 268.5
L 561.45 264.3
Q 570.303125 261.2431640625 574.05 259.45
M 571.4 293.9
Q 572.782421875 292.8390625 574.05 291.85 588.5638671875 280.406640625 588.15 277.05 587.778125 274.033203125 574.05 278.1 571.1693359375 278.9791015625 567.7 280.15
L 549.7 286.95
Q 551.3267578125 296.69609375 555.3 305.45
L 571.4 293.9
M 574.05 238.35
Q 578.65 237.29453125 578.65 236.35 578.65 235.3552734375 574.05 235 571.2515625 234.812109375 566.75 234.85
L 558 235.15
Q 556.360546875 238.0998046875 555 241.15
L 565.45 239.9
Q 570.8580078125 239.101171875 574.05 238.35
M 580.6 219.65
L 571.45 217.5
Q 567.4654296875 221.4994140625 564.15 225.8
L 575.25 226.1
Q 589.55 226.1 590 224.25 590.45 222.4 580.6 219.65
M 661.75 309.15
Q 663.8 308.35 665.15 308.55 667.35 308.9 671.35 312.55
L 667.35 312.55 669.55 317.7 663.55 314.1 665.5 319.9 658.9 316.95 661.1 322.85
Q 657.45 321.35 656.35 319.15 655.65 317.8 655 315.4
L 654.5 313.3
Q 648.25 311.85 647.15 311.45
L 639.85 309.25 643.4 314.55
Q 647.45 320.3 649.75 322.85 651.8283203125 325.154296875 656.2 333.95 656.7037109375 334.8880859375 657.2 335.9 659.2240234375 340.0669921875 660.95 343.9 669.1029296875 339.976171875 676.35 333.95 679.490234375 331.3662109375 682.45 328.4 685.44609375 325.410546875 688.05 322.25 674.54296875 308.55625 669.15 304.5 665.5 301.75 656.5 299.95
L 648.25 298.65 655.6 304.5
Q 657.45 305.95 660 310
L 661.75 309.15
M 705.4 269.95
Q 705.196484375 263.83046875 704.15 258.05 697.75 257.4427734375 691.35 257 675.4 256 675.4 257.6 675.4 259.2 691.15 265 698.295703125 267.623046875 705.4 269.95
M 687.05 282.6
Q 668.1 275.45 666.95 277.75 665.8 280.05 683.15 293.95 690.7240234375 300.079296875 698.5 305.8 702.1326171875 297.9955078125 703.85 289.35 695.5564453125 285.8234375 687.05 282.6
M 669.9 207.4
Q 669.9 207.25625 670.6 207.55 651.5228515625 194.5 627 194.5 602.5138671875 194.5 583.4 207.5
L 591.25 211.65
Q 603.95 218.75 606.5 221.7 609.75 225.5 611.25 229.85 612.95 234.55 611.65 237.45 610.8 239.35 607.2 240.3 603.95 241.15 603.55 243.7 603.05 246.9 608.95 249.95 613.95 252.45 618.2 252.85 621.4 253.15 622.8 250.45 624.2 247.75 622.25 245.5 620.65 243.65 618.55 245.3
L 616.75 247.35
Q 615.95 246.8 615.2 245.85 613.75 243.9 614.2 241.85 614.65 239.8 617.6 238.8 619.05 238.3 620.4 238.2
L 620.9 237.25
Q 621.55 236.15 622.25 235.25 623.1 234.1 627.85 233.8 632.7 233.45 635.1 234.5 637 235.35 640.35 242.85 643.8 250.4 644.25 250.65 645.4 251.25 648.1 248.5 650.85 245.65 650.85 243.3 650.85 241.25 647.95 239.95 644.8 238.95 644.25 238.55 643.2 237.8 643.6 233.5 644.1 228.45 646.8 223.55 649.3 219 659.85 212.75 665.15 209.6 669.9 207.4
M 681 216
Q 677.4806640625 217.2205078125 674.05 218.65 664.45 222.55 665.15 224.6 665.85 226.65 679.65 226.75 685.0837890625 226.7890625 690.4 226.55 686.8431640625 221.8431640625 682.45 217.45 681.7240234375 216.7240234375 681 216
M 689.15 240.5
Q 694.0419921875 240.9138671875 698.9 241.05 697.1833984375 237.1380859375 694.95 233.4 690.7787109375 233.4875 686.55 233.85 676.1 234.8 676.1 237.1 676.1 239.4 689.15 240.5
M 623.75 238.85
L 626.25 239.75 627.65 238.2 623.75 238.85 Z"/>
</g>

<g id="Layer0_6_FILL">
<path fill="#CCCCCC" stroke="none" d="
M 164.2 200.65
L 164.2 337.35 274.3 337.35 274.3 200.65 164.2 200.65
M 269.75 205.05
L 269.75 209.5 269.75 223.45 269.75 249.95 269.75 261.7 269.75 305.4 269.75 323.25 273 323.25 273 336.4 258.5 336.4 258.5 323.25 269.75 323.25 269.75 305.4 252.6 305.4 244.3 305.4 244.3 323.25 247.7 323.25 247.7 336.4 233.2 336.4 233.2 323.25 244.3 323.25 244.3 305.4 239.15 305.4 229.9 305.4 218.8 305.4 218.8 323.25 222.1 323.25 222.1 336.4 207.6 336.4 207.6 323.25 218.8 323.25 218.8 305.4 194.1 305.4 194.1 323.25 197.4 323.25 197.4 336.4 182.6 336.4 182.6 323.25 194.1 323.25 194.1 305.4 168.6 305.4 168.6 336.7 168.6 305.4 168.6 253.9 168.6 216 168.6 205.05 176.8 205.05 225.85 205.05 269.75 205.05
M 220.65 268.25
Q 218.05 268.25 216.15 270.1 214.3 272 214.3 274.65 214.3 277.25 216.15 279.15 218.05 281 220.65 281 222.9650390625 281 224.7 279.6 224.9599609375 279.3837890625 225.2 279.15 227.05 277.25 227.05 274.65 227.05 272 225.2 270.1 223.3 268.25 220.65 268.25
M 190.6 273.25
Q 189.7087890625 273.8412109375 188.9 274.65 185.85 277.7 185.85 282 185.85 286.25 188.9 289.3 191.95 292.35 196.25 292.35 200.5 292.35 203.55 289.3 206.6 286.25 206.6 282 206.6 277.7 203.55 274.65 200.5 271.6 196.25 271.6 193.090234375 271.6 190.6 273.25
M 180.6 234.75
Q 178.31328125 234.9318359375 176.6 236.6 174.75 238.5 174.75 241.15 174.75 243.75 176.6 245.65 178.5 247.5 181.1 247.5 183.75 247.5 185.65 245.65 187.5 243.75 187.5 241.15 187.5 238.5 185.65 236.6 183.75 234.75 181.1 234.75 180.84453125 234.75 180.6 234.75
M 223.25 246.95
Q 228.5 241.7 228.5 234.3 228.5 233.6291015625 228.45 232.95 228.0240234375 226.4240234375 223.25 221.65 218 216.4 210.6 216.4 203.2 216.4 197.95 221.65 197.02578125 222.57421875 196.25 223.55 192.7 228.202734375 192.7 234.3 192.7 241.7 197.95 246.95 203.2 252.2 210.6 252.2 218 252.2 223.25 246.95
M 269.75 261.7
L 260.55 263.1 251.9 282.6 252.6 305.4 269.75 305.4 269.75 261.7
M 244.1 272.55
Q 245.95 270.65 245.95 268.05 245.95 265.4 244.1 263.5 243.5037109375 262.91953125 242.8 262.5 241.368359375 261.65 239.55 261.65 236.95 261.65 235.05 263.5 233.2 265.4 233.2 268.05 233.2 270.65 235.05 272.55 236.9259765625 274.3765625 239.45 274.4 239.5169921875 274.4 239.55 274.4 242.2 274.4 244.1 272.55
M 245.95 268.05
Q 245.95 270.65 244.1 272.55 242.2 274.4 239.55 274.4 239.5169921875 274.4 239.45 274.4
L 239.15 305.4 244.3 305.4 252.6 305.4 251.9 282.6 260.55 263.1 269.75 261.7 269.75 249.95 250.3 249.95 242.8 262.5
Q 243.5037109375 262.91953125 244.1 263.5 245.95 265.4 245.95 268.05
M 269.75 223.45
L 253.15 234.6 228.45 232.95
Q 228.5 233.6291015625 228.5 234.3 228.5 241.7 223.25 246.95 218 252.2 210.6 252.2 203.2 252.2 197.95 246.95 192.7 241.7 192.7 234.3 192.7 228.202734375 196.25 223.55
L 176.8 205.05 168.6 205.05 168.6 216 179.85 225 180.6 234.75
Q 180.84453125 234.75 181.1 234.75 183.75 234.75 185.65 236.6 187.5 238.5 187.5 241.15 187.5 243.75 185.65 245.65 183.75 247.5 181.1 247.5 178.5 247.5 176.6 245.65 174.75 243.75 174.75 241.15 174.75 238.5 176.6 236.6 178.31328125 234.9318359375 180.6 234.75
L 179.85 225 168.6 216 168.6 253.9 178.9 254.45 190.6 273.25
Q 193.090234375 271.6 196.25 271.6 200.5 271.6 203.55 274.65 206.6 277.7 206.6 282 206.6 286.25 203.55 289.3 200.5 292.35 196.25 292.35 191.95 292.35 188.9 289.3 185.85 286.25 185.85 282 185.85 277.7 188.9 274.65 189.7087890625 273.8412109375 190.6 273.25
L 178.9 254.45 168.6 253.9 168.6 305.4 194.1 305.4 218.8 305.4 229.9 305.4 230.1 286.15 224.7 279.6
Q 222.9650390625 281 220.65 281 218.05 281 216.15 279.15 214.3 277.25 214.3 274.65 214.3 272 216.15 270.1 218.05 268.25 220.65 268.25 223.3 268.25 225.2 270.1 227.05 272 227.05 274.65 227.05 277.25 225.2 279.15 224.9599609375 279.3837890625 224.7 279.6
L 230.1 286.15 229.9 305.4 239.15 305.4 239.45 274.4
Q 236.9259765625 274.3765625 235.05 272.55 233.2 270.65 233.2 268.05 233.2 265.4 235.05 263.5 236.95 261.65 239.55 261.65 241.368359375 261.65 242.8 262.5
L 250.3 249.95 269.75 249.95 269.75 223.45
M 269.75 223.45
L 269.75 209.5 252.2 220.85 238.1 219.9 225.85 205.05 176.8 205.05 196.25 223.55
Q 197.02578125 222.57421875 197.95 221.65 203.2 216.4 210.6 216.4 218 216.4 223.25 221.65 228.0240234375 226.4240234375 228.45 232.95
L 253.15 234.6 269.75 223.45
M 269.75 209.5
L 269.75 205.05 225.85 205.05 238.1 219.9 252.2 220.85 269.75 209.5 Z"/>

<path fill="#000000" stroke="none" d="
M 258.5 323.25
L 258.5 336.4 273 336.4 273 323.25 269.75 323.25 258.5 323.25
M 194.1 323.25
L 182.6 323.25 182.6 336.4 197.4 336.4 197.4 323.25 194.1 323.25
M 233.2 323.25
L 233.2 336.4 247.7 336.4 247.7 323.25 244.3 323.25 233.2 323.25
M 222.1 323.25
L 218.8 323.25 207.6 323.25 207.6 336.4 222.1 336.4 222.1 323.25 Z"/>
</g>

<g id="Layer0_7_FILL">
<path fill="url(#Gradient_2)" stroke="none" d="
M 132.6 259.8
L 139.1 250.05 104.65 199.65 42.05 199.65 18 225.45 12.85 268.9 37.2 296.95 30.15 319.7 92.8 341.5 104.25 322.95 128.5 316.05 128.5 301.7 133.75 288.25 145.3 276.7 132.6 259.8
M 130.65 250.1
L 124.05 260.05 136.05 276.05 127.75 284.3 121.5 300.4 121.5 310.75 99.7 316.95 89.8 333.05 38.85 315.3 45.05 295.3 20.15 266.6 24.7 228.55 45.1 206.65 100.95 206.65 130.65 250.1
M 38.5 228.4
L 31.85 230.55 52.85 295.45 59.5 293.3 38.5 228.4
M 74.25 226.1
L 67.25 226.1 67.25 291.25 74.25 291.25 74.25 226.1
M 108.25 232.1
L 101.55 230 82.2 291.75 88.9 293.85 108.25 232.1 Z"/>

<path fill="#000000" stroke="none" d="
M 124.05 260.05
L 130.65 250.1 100.95 206.65 45.1 206.65 24.7 228.55 20.15 266.6 45.05 295.3 38.85 315.3 89.8 333.05 99.7 316.95 121.5 310.75 121.5 300.4 127.75 284.3 136.05 276.05 124.05 260.05
M 101.55 230
L 108.25 232.1 88.9 293.85 82.2 291.75 101.55 230
M 67.25 226.1
L 74.25 226.1 74.25 291.25 67.25 291.25 67.25 226.1
M 31.85 230.55
L 38.5 228.4 59.5 293.3 52.85 295.45 31.85 230.55 Z"/>
</g>

<g id="Layer0_8_FILL">
<path fill="#CC0000" stroke="none" d="
M 152.3 381.1
L 149.95 378.8
Q 127.5 357.9 96.3 357.9 63.5 357.9 40.3 381.1 17.1 404.3 17.1 437.1 17.1 469.9 40.3 493.1 63.5 516.3 96.3 516.3 129.1 516.3 152.3 493.1 175.5 469.9 175.5 437.1 175.5 407.5 156.7 385.8 154.6 383.4 152.3 381.1
M 99.95 385.85
L 99.95 385.8
Q 115.95 390.05 124.65 402.1 130.05 409.55 131.35 417.2 131.9 420.35 116.65 427.7 116.35 427.85 116.05 428 117.15 427.85 118.25 427.7 138.25 425.15 139.2 422.85 142.2 415.55 124.1 396.3 118.5 390.25 111.4 383.75
L 105.45 378.45
Q 106.1 378.6 106.7 378.8 128.45 385.2 140.2 403.45 144.6 410.25 146.7 417.4 148.5 423.4 148 426.5 147.3 430.85 123.9 433.7 120.95 434.05 118 434.35 120.95 434.65 123.9 435 147.3 437.85 148 442.2 149.55 451.85 145.5 465.25 139.8 484.35 124.85 492.15 129.65 483.5 133.8 473.35 142.2 453.15 139.2 445.85 138.25 443.55 118.25 441 117.15 440.85 116.05 440.7 116.35 440.85 116.65 441 131.9 448.35 131.35 451.5 129.35 463.3 125.6 472.35 118.25 490.1 106.15 493.6 110 488.85 114.2 481.25 122.65 466.05 124.5 451.9 124.7 450.3 111.4 443.75 108.7654296875 442.4462890625 106.15 441.2 106.7357421875 442.00234375 107.3 442.9 112.6 451.3 112.6 463.15 112.6 475 107.3 483.35 102.05 491.75 94.6 491.75 87.15 491.75 81.85 483.35 76.6 475 76.6 463.15 76.6 451.3 81.85 442.9 82.448046875 441.9578125 83.05 441.1 80.36953125 442.404296875 77.65 443.75 64.35 450.3 64.55 451.9 66.4 466.05 74.85 481.25 79.05 488.85 82.9 493.6 70.8 490.1 63.45 472.35 59.7 463.3 57.7 451.5 57.15 448.35 72.4 441 72.7 440.85 73 440.7 71.9 440.85 70.8 441 50.8 443.55 49.85 445.85 46.85 453.15 55.25 473.35 59.4 483.5 64.2 492.15 49.25 484.35 43.55 465.25 39.5 451.85 41.05 442.2 41.75 437.85 65.15 435 68.090625 434.648046875 71 434.35 68.090625 434.051953125 65.15 433.7 41.75 430.85 41.05 426.5 40.55 423.4 42.35 417.4 44.45 410.25 48.85 403.45 60.95 384.65 83.6 378.45
L 77.65 383.75
Q 70.55 390.25 64.95 396.3 46.85 415.55 49.85 422.85 50.8 425.15 70.8 427.7 71.8888671875 427.8416015625 72.95 427.95 72.6876953125 427.8390625 72.4 427.7 57.15 420.35 57.7 417.2 59 409.55 64.4 402.1 73.1 390.05 89.1 385.8
L 77.25 397.8
Q 65.25 410.95 64.55 416.8 64.35 418.4 77.65 424.95 81.816796875 427.0013671875 85.95 428.9 83.2 425.1875 83.2 420.1 83.2 419.2041015625 83.25 418.35 83.7359375 413.86015625 86.55 410.5 89.9 406.55 94.6 406.55 99.3 406.55 102.65 410.5 105.4640625 413.86015625 105.9 418.35 106 419.2041015625 106 420.1 106 425.1380859375 103.3 428.85 107.3265625 426.9658203125 111.4 424.95 124.7 418.4 124.5 416.8 123.8 410.95 111.8 397.8
L 99.95 385.85 Z"/>

<path fill="#000000" stroke="none" d="
M 83.05 441.1
Q 82.448046875 441.9578125 81.85 442.9 76.6 451.3 76.6 463.15 76.6 475 81.85 483.35 87.15 491.75 94.6 491.75 102.05 491.75 107.3 483.35 112.6 475 112.6 463.15 112.6 451.3 107.3 442.9 106.7357421875 442.00234375 106.15 441.2 103.0904296875 437.0533203125 99.35 435.5 97.1009765625 434.55 94.6 434.55 92.02265625 434.55 89.7 435.55 86.07265625 437.112890625 83.05 441.1
M 99.95 385.8
L 99.95 385.85 111.8 397.8
Q 123.8 410.95 124.5 416.8 124.7 418.4 111.4 424.95 107.3265625 426.9658203125 103.3 428.85 106 425.1380859375 106 420.1 106 419.2041015625 105.9 418.35 105.4640625 413.86015625 102.65 410.5 99.3 406.55 94.6 406.55 89.9 406.55 86.55 410.5 83.7359375 413.86015625 83.25 418.35 83.2 419.2041015625 83.2 420.1 83.2 425.1875 85.95 428.9 81.816796875 427.0013671875 77.65 424.95 64.35 418.4 64.55 416.8 65.25 410.95 77.25 397.8
L 89.1 385.8
Q 73.1 390.05 64.4 402.1 59 409.55 57.7 417.2 57.15 420.35 72.4 427.7 72.6876953125 427.8390625 72.95 427.95 71.8888671875 427.8416015625 70.8 427.7 50.8 425.15 49.85 422.85 46.85 415.55 64.95 396.3 70.55 390.25 77.65 383.75
L 83.6 378.45
Q 60.95 384.65 48.85 403.45 44.45 410.25 42.35 417.4 40.55 423.4 41.05 426.5 41.75 430.85 65.15 433.7 68.090625 434.051953125 71 434.35 68.090625 434.648046875 65.15 435 41.75 437.85 41.05 442.2 39.5 451.85 43.55 465.25 49.25 484.35 64.2 492.15 59.4 483.5 55.25 473.35 46.85 453.15 49.85 445.85 50.8 443.55 70.8 441 71.9 440.85 73 440.7 72.7 440.85 72.4 441 57.15 448.35 57.7 451.5 59.7 463.3 63.45 472.35 70.8 490.1 82.9 493.6 79.05 488.85 74.85 481.25 66.4 466.05 64.55 451.9 64.35 450.3 77.65 443.75 80.36953125 442.404296875 83.05 441.1 86.07265625 437.112890625 89.7 435.55 92.02265625 434.55 94.6 434.55 97.1009765625 434.55 99.35 435.5 103.0904296875 437.0533203125 106.15 441.2 108.7654296875 442.4462890625 111.4 443.75 124.7 450.3 124.5 451.9 122.65 466.05 114.2 481.25 110 488.85 106.15 493.6 118.25 490.1 125.6 472.35 129.35 463.3 131.35 451.5 131.9 448.35 116.65 441 116.35 440.85 116.05 440.7 117.15 440.85 118.25 441 138.25 443.55 139.2 445.85 142.2 453.15 133.8 473.35 129.65 483.5 124.85 492.15 139.8 484.35 145.5 465.25 149.55 451.85 148 442.2 147.3 437.85 123.9 435 120.95 434.65 118 434.35 120.95 434.05 123.9 433.7 147.3 430.85 148 426.5 148.5 423.4 146.7 417.4 144.6 410.25 140.2 403.45 128.45 385.2 106.7 378.8 106.1 378.6 105.45 378.45
L 111.4 383.75
Q 118.5 390.25 124.1 396.3 142.2 415.55 139.2 422.85 138.25 425.15 118.25 427.7 117.15 427.85 116.05 428 116.35 427.85 116.65 427.7 131.9 420.35 131.35 417.2 130.05 409.55 124.65 402.1 115.95 390.05 99.95 385.8 Z"/>
</g>

<g id="Mask_FlashAICB_Layer_1__Clip_Group__0_2_MASK_0_FILL">
<path fill="#FFFFFF" stroke="none" d="
M 0 0
L 0 9.9 11.55 9.9 11.55 0 0 0 Z"/>
</g>

<g id="FlashAICB_Layer_1__Clip_Group__0_Layer2_0_FILL">
<path fill="#DF012B" stroke="none" d="
M 11.35 7.15
Q 11.6 6.5 11.5 5.4 11.45 4.4 10.6 3.8 10.15 3.5 9.5 3.35
L 8.9 3.25 10.5 0.5
Q 10.6 0.4 11 0.45
L 11 0.05 9.25 0.05 9.25 0.4 9.7 0.45
Q 9.85 0.5 9.65 1
L 7.85 4.15 7.8 0.6
Q 7.9 0.4 8.1 0.4
L 8.25 0.45 8.25 0.1 6 0.1 6 0.4 6.35 0.4
Q 6.5 0.45 6.5 0.6
L 6.5 7.8
Q 6.5 7.95 6.05 7.95
L 6.05 8.25 8.35 8.25 8.35 7.95 8 7.95 7.85 7.75 7.85 4.65 7.95 4.5 8.25 4.2
Q 8.55 3.95 9.05 4.1 9.5 4.25 9.85 4.85 10.25 5.65 10.2 6.85 10.05 8.7 8.7 9.65 8.4 9.95 8.8 9.8 9.75 9.3 10.25 8.8 11.1 7.9 11.35 7.15
M 2.15 0.1
L 0.1 0.1 0.1 8.25 1.7 8.25 1.7 4.95 2.45 8.25 3.35 8.25 4.1 4.95 4.1 8.25 5.7 8.25 5.7 0.1 3.65 0.1 2.9 3.75 2.15 0.1 Z"/>
</g>

<g id="FlashAICB_Layer_1__Clip_Group__0_Layer2_1_FILL">
<path fill="#231F20" stroke="none" d="
M 5.8 0.1
L 5.7 0 3.65 0 3.6 0.05 2.9 3.5 2.2 0.05 2.15 0 0.1 0 0 0.1 0 8.25 0.1 8.35 1.7 8.35 1.8 8.25 1.8 5.55 2.4 8.25 2.45 8.35 3.35 8.35 3.4 8.25 4 5.55 4 8.25 4.1 8.35 5.7 8.35 5.8 8.25 5.8 0.1
M 0.15 0.15
L 2.1 0.15 2.85 3.75 2.95 3.75 3.7 0.15 5.65 0.15 5.65 8.2 4.15 8.2 4.15 4.95 4.1 4.85 4 4.9 3.3 8.2 2.5 8.2 1.8 4.9 1.7 4.85 1.65 4.95 1.65 8.2 0.15 8.2 0.15 0.15
M 11.05 0.5
L 11.05 0 9.2 0 9.2 0.45 9.35 0.45 9.65 0.5 9.7 0.6 9.65 0.85 7.9 3.9 7.9 0.55 7.95 0.55 8.1 0.5 8.3 0.5 8.35 0.45 8.35 0.1 8.25 0 6 0 5.9 0.1 5.95 0.4 5.95 0.45 6.1 0.45 6.3 0.5
Q 6.45 0.5 6.45 0.6
L 6.45 7.8 6.4 7.85 6.3 7.85 6.1 7.9 6 7.9 6 8.3 6.05 8.35 8.35 8.35 8.4 8.3 8.4 7.95 8.35 7.9 8 7.85 7.9 7.75 7.9 4.7 8 4.55 8.3 4.25
Q 8.45 4.1 8.7 4.1
L 9.05 4.15
Q 10.15 4.55 10.15 6.5
L 10.1 6.85
Q 10 8.45 8.9 9.4
L 8.65 9.6 8.55 9.7 8.5 9.8 8.55 9.9 8.6 9.9 8.8 9.85
Q 9.65 9.55 10.3 8.85 11.55 7.55 11.55 6.05
L 11.55 5.4
Q 11.45 4.35 10.65 3.75 10.2 3.4 9.5 3.25
L 9 3.2 10.5 0.65 10.55 0.5 11.05 0.5
M 10.95 0.15
L 10.95 0.35 10.65 0.35 10.45 0.45 10.35 0.6 8.85 3.25 8.85 3.3 8.9 3.35 9.05 3.35 9.45 3.4
Q 10.25 3.65 10.55 3.85 11.35 4.5 11.4 5.4
L 11.45 6.05
Q 11.45 7.35 10.2 8.75 9.7 9.25 8.75 9.75
L 8.65 9.75 8.75 9.7 9 9.5 9.45 8.95
Q 10.2 8 10.25 6.85
L 10.25 6.5
Q 10.25 4.45 9.1 4.05
L 8.7 3.95
Q 8.4 3.95 8.2 4.15
L 7.9 4.45 7.8 4.6 7.75 4.65 7.75 7.75 7.8 7.9 8 8 8.25 8 8.25 8.2 6.1 8.2 6.1 8.05 6.5 7.95 6.55 7.8 6.55 0.6
Q 6.7 0.45 6.35 0.35
L 6.1 0.3 6.05 0.3 6.05 0.15 8.2 0.15 8.2 0.35 8.1 0.35 7.9 0.4
Q 7.75 0.55 7.75 0.6
L 7.75 4.2 7.8 4.25 7.9 4.25 7.9 4.2 9.7 1 9.8 0.6 9.8 0.45 9.7 0.35 9.35 0.35 9.35 0.15 10.95 0.15 Z"/>
</g>

<g id="Mask_FlashAICB_0_Layer_1__Clip_Group__0_2_MASK_0_FILL">
<path fill="#FFFFFF" stroke="none" d="
M 0 0
L 0 8.8 11.55 8.8 11.55 0 0 0 Z"/>
</g>

<g id="FlashAICB_0_Layer_1__Clip_Group__0_Layer2_0_FILL">
<path fill="#D60033" stroke="none" d="
M 1.95 4.25
Q 1.95 5.8 3.05 6.85 4.1 7.95 5.6 7.95 7.15 7.95 8.2 6.85 9.3 5.8 9.3 4.25 9.3 2.75 8.2 1.7 7.15 0.6 5.6 0.6 4.1 0.6 3.05 1.7 1.95 2.75 1.95 4.25 Z"/>
</g>

<g id="FlashAICB_0_Layer_1__Clip_Group__0_Layer2_1_FILL">
<path fill="#231F20" stroke="none" d="
M 8.35 1.55
Q 7.2 0.45 5.6 0.45 4 0.45 2.9 1.55 1.75 2.7 1.75 4.25 1.75 5.85 2.9 7 4 8.1 5.6 8.1 7.2 8.1 8.35 7 9.45 5.85 9.45 4.25 9.45 2.65 8.35 1.55
M 5.6 0.6
Q 7.2 0.6 8.2 1.7 9.25 2.75 9.25 4.25 9.25 5.8 8.2 6.85 7.2 7.95 5.6 7.95 4.1 7.95 3 6.85 1.95 5.8 1.95 4.25 1.95 2.75 3 1.7 4.1 0.6 5.6 0.6 Z"/>
</g>

<g id="FlashAICB_0_Layer_1__Clip_Group__0_Layer2_2_FILL">
<path fill="#FDC52A" stroke="none" d="
M 0.35 8.65
L 3.55 8.65 5.7 6 7.8 8.65 11.2 8.65 7.35 4.2 10.9 0.2 7.65 0.2 5.7 2.5 3.85 0.2 0.5 0.2 4.1 4.3 0.35 8.65 Z"/>
</g>

<g id="FlashAICB_0_Layer_1__Clip_Group__0_Layer2_3_FILL">
<path fill="#231F20" stroke="none" d="
M 7.65 0
L 5.7 2.35 3.85 0 0.15 0 3.95 4.3 0.1 8.65 0 8.8 3.55 8.8 5.7 6.2 7.85 8.8 11.55 8.8 7.5 4.2 11.2 0 7.65 0
M 5.7 2.6
L 7.75 0.2 10.85 0.2 7.3 4.2 11.2 8.65 7.9 8.65 5.7 5.9 3.45 8.65 0.35 8.65 4.15 4.3 0.55 0.2 3.75 0.2 5.7 2.6 Z"/>
</g>

<g id="Layer0_11_FILL">
<path fill="#4235B9" stroke="none" d="
M 412.65 703.85
Q 413.35 703.15 413.35 702.2 413.35 701.25 412.65 700.55 411.95 699.85 411 699.85 410.05 699.85 409.35 700.55 408.65 701.25 408.65 702.2 408.65 703.15 409.35 703.85 410.05 704.55 411 704.55 411.95 704.55 412.65 703.85
M 327.35 719.3
Q 326.95 718.9 326.35 718.9 325.75 718.9 325.3 719.3 324.9 719.75 324.9 720.35 324.9 720.95 325.3 721.35 325.75 721.8 326.35 721.8 326.95 721.8 327.35 721.35 327.8 720.95 327.8 720.35 327.8 719.75 327.35 719.3
M 338.6 713.5
Q 338.6 712.9 338.15 712.45 337.75 712.05 337.15 712.05 336.55 712.05 336.1 712.45 335.7 712.9 335.7 713.5 335.7 714.1 336.1 714.5 336.55 714.95 337.15 714.95 337.75 714.95 338.15 714.5 338.6 714.1 338.6 713.5
M 348.65 701.65
Q 347.9 701.65 347.35 702.15 346.85 702.7 346.85 703.45 346.85 704.2 347.35 704.7 347.9 705.25 348.65 705.25 349.4 705.25 349.9 704.7 350.45 704.2 350.45 703.45 350.45 702.7 349.9 702.15 349.4 701.65 348.65 701.65
M 392.85 721.8
Q 392.45 721.4 385.1 721.9 376.45 722.45 369.45 720.35 361.9 718.05 354.65 713.95 349.15 710.85 349 711 348.15 711.85 353.85 716.55 360.25 721.9 367.3 723.95 379.55 727.55 392.85 721.8
M 401.75 698.75
Q 402.15 698.4 402.15 697.9 402.15 697.4 401.75 697 401.4 696.65 400.9 696.65 400.4 696.65 400 697 399.65 697.4 399.65 697.9 399.65 698.4 400 698.75 400.4 699.15 400.9 699.15 401.4 699.15 401.75 698.75
M 403.1 667.1
Q 402.55 667.1 402.15 667.45 401.8 667.85 401.8 668.4 401.8 668.95 402.15 669.3 402.55 669.7 403.1 669.7 403.65 669.7 404 669.3 404.4 668.95 404.4 668.4 404.4 667.85 404 667.45 403.65 667.1 403.1 667.1
M 404.85 658.7
Q 404.35 658.2 403.6 658.2 402.85 658.2 402.3 658.7 401.8 659.25 401.8 660 401.8 660.75 402.3 661.25 402.85 661.8 403.6 661.8 404.35 661.8 404.85 661.25 405.4 660.75 405.4 660 405.4 659.25 404.85 658.7
M 355.65 636.65
Q 355.15 636.65 354.75 637 354.4 637.4 354.4 637.9 354.4 638.4 354.75 638.75 355.15 639.15 355.65 639.15 356.15 639.15 356.5 638.75 356.9 638.4 356.9 637.9 356.9 637.4 356.5 637 356.15 636.65 355.65 636.65
M 361.85 626.8
Q 362.35 626.35 362.35 625.65 362.35 624.95 361.85 624.45 361.4 624 360.7 624 360 624 359.5 624.45 359.05 624.95 359.05 625.65 359.05 626.35 359.5 626.8 360 627.3 360.7 627.3 361.4 627.3 361.85 626.8
M 331.8 627.1
Q 331.8 626.25 331.2 625.65 330.65 625.1 329.8 625.1 328.95 625.1 328.35 625.65 327.8 626.25 327.8 627.1 327.8 627.95 328.35 628.5 328.95 629.1 329.8 629.1 330.65 629.1 331.2 628.5 331.8 627.95 331.8 627.1
M 348.45 609.5
Q 349.7 608.25 349.7 606.45 349.7 604.65 348.45 603.4 347.2 602.15 345.4 602.15 343.6 602.15 342.35 603.4 341.1 604.65 341.1 606.45 341.1 608.25 342.35 609.5 343.6 610.75 345.4 610.75 347.2 610.75 348.45 609.5
M 414.35 660.75
Q 413.45 659.85 412.4 659.5 410.45 652.65 404.05 647.35 400.4 644.3 395.7 642.15
L 391.75 640.6 395.5 643.15
Q 399.8 646.45 402.9 650.05 407.15 655 408.4 659.7 407.6 660.1 406.95 660.75 405.4 662.3 405.4 664.45 405.4 666.6 406.95 668.15 407.4 668.6 407.95 668.95 407.4 670.4 406.5 671.85 400.15 682.2 377.2 685.15 370 686.1 362.35 686.15 362.2 685.35 361.6 684.75 360.85 684 359.8 684 358.75 684 358 684.75 357.25 685.5 357.25 686.55 357.25 687.6 358 688.35 358.75 689.1 359.8 689.1 360.85 689.1 361.6 688.35 362.3 687.65 362.35 686.7 362.95 686.85 363.7 687 373.6 688.1 382.15 687.75 409.5 686.65 412.6 671.85 412.9 670.45 413.05 669.15 413.75 668.75 414.35 668.15 415.9 666.6 415.9 664.45 415.9 662.3 414.35 660.75
M 299.7 713.55
Q 300.05 713.9 300.5 713.9 300.95 713.9 301.25 713.55 301.6 713.25 301.6 712.8 301.6 712.35 301.25 712 300.95 711.7 300.5 711.7 300.05 711.7 299.7 712 299.4 712.35 299.4 712.8 299.4 713.25 299.7 713.55
M 290.45 710.1
Q 290.45 711.5 291.45 712.5 292.45 713.5 293.85 713.5 295.25 713.5 296.25 712.5 297.25 711.5 297.25 710.1 297.25 708.7 296.25 707.7 295.25 706.7 293.85 706.7 292.45 706.7 291.45 707.7 290.45 708.7 290.45 710.1
M 321.7 709.75
Q 321.7 710.25 322.05 710.6 322.45 711 322.95 711 323.45 711 323.8 710.6 324.2 710.25 324.2 709.75 324.2 709.25 323.8 708.85 323.45 708.5 322.95 708.5 322.45 708.5 322.05 708.85 321.7 709.25 321.7 709.75
M 311.55 701.35
Q 311.15 700.95 310.55 700.95 309.95 700.95 309.5 701.35 309.1 701.8 309.1 702.4 309.1 703 309.5 703.4 309.95 703.85 310.55 703.85 311.15 703.85 311.55 703.4 312 703 312 702.4 312 701.8 311.55 701.35
M 322.4 697.15
Q 322.4 697.65 322.75 698 323.15 698.4 323.65 698.4 324.15 698.4 324.5 698 324.9 697.65 324.9 697.15 324.9 696.65 324.5 696.25 324.15 695.9 323.65 695.9 323.15 695.9 322.75 696.25 322.4 696.65 322.4 697.15
M 291.75 686.05
Q 290.8 687 290.8 688.35 290.8 689.7 291.75 690.65 292.7 691.6 294.05 691.6 295.4 691.6 296.35 690.65 297.3 689.7 297.3 688.35 297.3 687 296.35 686.05 295.4 685.1 294.05 685.1 292.7 685.1 291.75 686.05
M 288 679.35
Q 288 678.3 287.25 677.55 286.5 676.8 285.45 676.8 284.4 676.8 283.65 677.55 282.9 678.3 282.9 679.35 282.9 680.4 283.65 681.15 284.4 681.9 285.45 681.9 286.5 681.9 287.25 681.15 288 680.4 288 679.35
M 301.2 663.55
Q 301.2 662.65 300.55 662 299.95 661.4 299.05 661.4 298.15 661.4 297.5 662 296.9 662.65 296.9 663.55 296.9 664.45 297.5 665.05 298.15 665.7 299.05 665.7 299.95 665.7 300.55 665.05 301.2 664.45 301.2 663.55
M 311.2 648.7
Q 309.5 654.7 316.15 661.05 322.8 667.5 333.8 670.6 344.8 673.7 353.85 671.65 362.8 669.7 364.5 663.7 366.2 657.75 359.55 651.3 352.9 644.9 341.9 641.8 330.9 638.7 321.85 640.7 312.9 642.75 311.2 648.7
M 276.85 665.2
Q 276.85 664.65 276.45 664.25 276.1 663.9 275.55 663.9 275 663.9 274.6 664.25 274.25 664.65 274.25 665.2 274.25 665.75 274.6 666.1 275 666.5 275.55 666.5 276.1 666.5 276.45 666.1 276.85 665.75 276.85 665.2
M 271.9 640.7
Q 271.4 640.2 270.65 640.2 269.9 640.2 269.35 640.7 268.85 641.25 268.85 642 268.85 642.75 269.35 643.25 269.9 643.8 270.65 643.8 271.4 643.8 271.9 643.25 272.45 642.75 272.45 642 272.45 641.25 271.9 640.7
M 272.65 635.2
Q 272.15 635.2 271.75 635.55 271.4 635.95 271.4 636.45 271.4 636.95 271.75 637.3 272.15 637.7 272.65 637.7 273.15 637.7 273.5 637.3 273.9 636.95 273.9 636.45 273.9 635.95 273.5 635.55 273.15 635.2 272.65 635.2
M 269.6 634.1
Q 269.6 633.2 268.95 632.55 268.35 631.95 267.45 631.95 266.55 631.95 265.9 632.55 265.3 633.2 265.3 634.1 265.3 635 265.9 635.6 266.5 636.2 267.35 636.25 266.45 637.1 264.95 638.85 261.35 643.2 259.05 648.25 251.95 663.65 261.7 675.45 268.25 683.4 283.9 692.55 283.55 692.7 283.25 693 282.5 693.75 282.5 694.8 282.5 695.85 283.25 696.6 284 697.35 285.05 697.35 286.1 697.35 286.85 696.6 287.6 695.85 287.6 694.8 287.6 694.7 287.6 694.65 293.8 698.1 301.2 701.7 301.05 701.85 300.85 702 299.75 703.15 299.75 704.7 299.75 706.25 300.85 707.35 302 708.5 303.55 708.5 305.1 708.5 306.2 707.35 307.35 706.25 307.35 704.7 307.35 704.65 307.35 704.6 311.8 706.65 316.65 708.8 311.85 705.95 306.9 702.9 306.6 702.4 306.2 702 305.15 700.95 303.7 700.9 298 697.35 292.1 693.5 266.3 676.55 262.75 667.95 259.2 659.35 263.75 646.75 267.95 637.8 268.45 636 268.7 635.85 268.95 635.6 269.6 635 269.6 634.1
M 271.05 622.55
Q 270.15 622.55 269.5 623.2 268.85 623.85 268.85 624.75 268.85 625.65 269.5 626.3 270.15 626.95 271.05 626.95 271.95 626.95 272.6 626.3 273.25 625.65 273.25 624.75 273.25 623.85 272.6 623.2 271.95 622.55 271.05 622.55
M 277.15 630.5
Q 276.25 630.5 275.6 631.1 275 631.75 275 632.65 275 633.55 275.6 634.15 276.25 634.8 277.15 634.8 278.05 634.8 278.65 634.15 279.3 633.55 279.3 632.65 279.3 631.75 278.65 631.1 278.05 630.5 277.15 630.5
M 281.65 619.85
Q 280.85 619.05 279.65 619.05 278.45 619.05 277.6 619.85 276.8 620.7 276.8 621.9 276.8 623.1 277.6 623.9 278.45 624.75 279.65 624.75 280.85 624.75 281.65 623.9 282.5 623.1 282.5 621.9 282.5 620.7 281.65 619.85
M 268.35 618.4
Q 267.9 617.95 267.25 617.95 266.6 617.95 266.1 618.4 265.65 618.9 265.65 619.55 265.65 620.2 266.1 620.65 266.6 621.15 267.25 621.15 267.9 621.15 268.35 620.65 268.85 620.2 268.85 619.55 268.85 618.9 268.35 618.4
M 272.1 618.25
Q 272.5 618.65 273 618.65 273.5 618.65 273.85 618.25 274.25 617.9 274.25 617.4 274.25 616.9 273.85 616.5 273.5 616.15 273 616.15 272.5 616.15 272.1 616.5 271.75 616.9 271.75 617.4 271.75 617.9 272.1 618.25
M 319.9 614.7
Q 311.55 613.2 292.9 614.3 274.8 615.4 275.35 616.85 275.55 617.4 279.95 617.1 289.2 616.45 291.15 616.4 310.05 615.7 324.2 620.1 330.1 621.95 335.45 623.85 335.35 623.9 335.3 623.95 335 624.3 335 624.75 335 625.2 335.3 625.5 335.65 625.85 336.1 625.85 336.55 625.85 336.85 625.5 337.2 625.2 337.2 624.75 337.2 624.6 337.2 624.5 346.4 627.85 353.85 631.45 353.25 631.2 352.6 631.2 351.4 631.2 350.55 632.05 349.7 632.9 349.7 634.1 349.7 635.3 350.55 636.15 351.4 637 352.6 637 353.8 637 354.65 636.15 355.5 635.3 355.5 634.1 355.5 632.9 354.65 632.05 354.3 631.7 353.9 631.5 355.5 632.25 357 633.05 359.6 634.35 361.85 635.7 361.35 635.9 360.95 636.3 360.15 637.1 360.15 638.2 360.15 639.3 360.95 640.1 361.75 640.9 362.85 640.9 363.95 640.9 364.75 640.1 365.55 639.3 365.55 638.2 365.55 638.1 365.55 638 372.25 642.4 375.45 646.75 374.95 646.9 374.5 647.35 373.8 648.05 373.8 649 373.8 649.95 374.5 650.65 375.2 651.35 376.15 651.35 377.05 651.35 377.75 650.7 380.8 656.75 380.7 660.75 380.6 665.35 376.35 669.7 372.65 673.5 358.85 674.05 358.5 674.05 349.85 674.2 345.9 674.25 345.8 674.7 345.6 675.45 352.15 676.35 359.6 677.35 366.6 676.65 387.75 674.55 388.45 658.65 389.15 642.5 359 628.05 348.5 623 335.75 618.95 325.9 615.8 319.9 614.7
M 314.9 629.1
Q 315.1 628.35 309.6 628.5 303.35 628.65 297.45 630.45 279.65 635.8 278.95 651.7 278.25 667.9 301.55 682.15 316.5 691.35 333.55 696.25 348.7 700.6 367.15 702.25 387.3 704 397.5 700.95 392.9 700.55 384.75 699.65 367.85 697.85 353.2 694.65 304.65 684.15 290.8 661.8 279.2 643.05 295.7 634.65 300.6 632.2 308.35 630.55 314.85 629.25 314.9 629.1
M 322.45 634.8
Q 322.45 633.6 321.6 632.75 320.75 631.9 319.55 631.9 318.35 631.9 317.5 632.75 316.65 633.6 316.65 634.8 316.65 636 317.5 636.85 318.35 637.7 319.55 637.7 320.75 637.7 321.6 636.85 322.45 636 322.45 634.8
M 290.7 610.35
Q 291.15 609.95 291.15 609.35 291.15 608.75 290.7 608.3 290.3 607.9 289.7 607.9 289.1 607.9 288.65 608.3 288.25 608.75 288.25 609.35 288.25 609.95 288.65 610.35 289.1 610.8 289.7 610.8 290.3 610.8 290.7 610.35 Z"/>
</g>

<g id="Layer0_12_FILL">
<path fill="#FFFFFF" stroke="none" d="
M 148.05 595.75
Q 115.25 595.75 92.05 618.95 68.85 642.15 68.85 674.95 68.85 707.75 92.05 730.95 115.25 754.15 148.05 754.15 180.85 754.15 204.05 730.95 227.25 707.75 227.25 674.95 227.25 645.35 208.45 623.65 206.35 621.25 204.05 618.95
L 201.7 616.65
Q 179.25 595.75 148.05 595.75
M 144.9 616.05
L 144.9 615.8 176.85 615.8 176.85 682.8 192.85 682.8 192.85 707.8 176.85 707.8 176.85 734.8 144.9 734.8 144.9 707.8 90.9 707.8 90.9 682.8 91.1 682.8 91.25 682.8 144.9 616.3 144.9 616.05
M 144.9 682.8
L 144.9 645.15 114.55 682.8 144.9 682.8 Z"/>

<path fill="#0081C2" stroke="none" d="
M 144.9 615.8
L 144.9 616.05 144.9 616.3 91.25 682.8 91.1 682.8 90.9 682.8 90.9 707.8 144.9 707.8 144.9 734.8 176.85 734.8 176.85 707.8 192.85 707.8 192.85 682.8 176.85 682.8 176.85 615.8 144.9 615.8
M 114.55 682.8
L 107.1 692 114.55 682.8 144.9 645.15 161.1 625.05 144.9 645.15 144.9 682.8 114.55 682.8 Z"/>
</g>

<path id="Layer0_2_1_STROKES" stroke="#000000" stroke-width="33" stroke-linejoin="round" stroke-linecap="round" fill="none" d="
M 491.725 45.725
Q 510.35 64.9337890625 510.35 91.8 510.35 118.1123046875 492.475 137.025 491.7060546875 137.84609375 490.9 138.65 471.5 158.1 444.05 158.1 417.1837890625 158.1 397.975 139.475 397.563671875 139.063671875 397.15 138.65 377.75 119.25 377.75 91.8 377.75 64.35 397.15 44.9 397.9560546875 44.09609375 398.775 43.325 417.7376953125 25.5 444.05 25.5 471.5 25.5 490.9 44.9 491.313671875 45.313671875 491.725 45.725
L 446.45 91 492.475 137.025
M 397.975 139.475
L 446.45 91 398.775 43.325"/>

<path id="Layer0_4_1_STROKES" stroke="#000000" stroke-width="4" stroke-linejoin="miter" stroke-linecap="square" stroke-miterlimit="12" fill="none" d="
M 657.5 15.75
Q 657.501953125 13.531640625 656.95 11.5
L 625.875 11.5 624.2 15.2
Q 621.505078125 15.2107421875 618.925 15.375
L 618.9 15.375
Q 590.2375 17.1833984375 569.4 37.975
L 569.375 38
Q 546.601953125 60.8216796875 546.6 93.05 546.648828125 119.6455078125 562.175 139.875
L 562.175 139.9
Q 563.7349609375 141.92890625 565.475 143.9
L 553.45 170.25 588.625 170.25 591.55 163.85
Q 606.548046875 170.8619140625 624.45 170.9 656.67890625 170.894140625 679.45 148.075
L 679.475 148.05
Q 702.294140625 125.27890625 702.3 93.05 702.3041015625 60.8080078125 679.475 37.975 671.52578125 30.0314453125 662.425 24.9 660.0029296875 23.525 657.5 22.35
L 657.5 15.75 Z
M 682.3 93.05
Q 682.30546875 117.003515625 665.35 133.925
L 665.325 133.95
Q 661.584765625 137.6978515625 657.5 140.625
L 657.5 45.45
Q 661.58046875 48.376953125 665.325 52.125 682.2955078125 69.0916015625 682.3 93.05 Z
M 583.525 52.1
Q 596.9578125 38.727734375 614.75 35.925
L 581.5 108.825
Q 580.814453125 110.0080078125 580.35 111.275
L 574.9 123.225
Q 566.5580078125 109.858203125 566.6 93.05 566.5978515625 69.0958984375 583.5 52.125
L 583.525 52.1 Z
M 620.325 100.75
L 625.5 89.375 625.5 100.75 620.325 100.75 Z
M 625.5 144.35
L 651.525 144.35
Q 639.3486328125 150.903515625 624.45 150.9 611.25 151 599.9 145.65
L 605.725 132.75 625.5 132.75 625.5 144.35 Z"/>

<path id="Layer0_5_1_STROKES" stroke="#000000" stroke-width="15.7" stroke-linejoin="miter" stroke-linecap="butt" stroke-miterlimit="42" fill="none" d="
M 690.4 226.575
Q 692.8947265625 229.911328125 694.975 233.425
M 670.6 207.575
Q 676.0154296875 211.2701171875 681 216.025
M 583.425 207.525
Q 578.5615234375 210.8427734375 574.05 215 572.760546875 216.1921875 571.5 217.45 571.4751953125 217.475 571.45 217.5
M 564.175 225.8
Q 560.7021484375 230.3083984375 558 235.15
M 555 241.175
Q 551.6271484375 248.7828125 550.025 257.125
M 548.65 268.5
Q 548.55 270.69921875 548.55 272.95 548.55 280.1908203125 549.7 286.95
M 555.325 305.45
Q 559.313671875 314.1654296875 565.625 321.9
M 591.9 343.375
Q 597.7123046875 346.3107421875 603.975 348.175
M 635.675 350.975
Q 639.4515625 350.595703125 643.1 349.875
M 650.85 347.925
Q 656.0724609375 346.2986328125 660.975 343.925
M 688.05 322.25
Q 694.44296875 314.52578125 698.5 305.825
M 703.875 289.375
Q 705.45 281.488671875 705.45 272.95 705.45 271.444921875 705.4 269.95
M 704.15 258.05
Q 702.5380859375 249.135546875 698.925 241.05 697.1833984375 237.1380859375 694.975 233.425
M 690.4 226.575
Q 686.8431640625 221.8431640625 682.45 217.45 681.7240234375 216.7240234375 681 216.025
M 670.6 207.575
Q 651.5228515625 194.5 627 194.5 602.5138671875 194.5 583.425 207.525
M 564.175 225.8
Q 567.4654296875 221.4994140625 571.45 217.5
M 555 241.175
Q 556.360546875 238.0998046875 558 235.15
M 548.65 268.5
Q 548.9458984375 262.6513671875 550.025 257.125
M 555.325 305.45
Q 551.3267578125 296.69609375 549.7 286.95
M 565.625 321.9
Q 568.33984375 325.23984375 571.5 328.4 572.7607421875 329.6607421875 574.05 330.85 575.7947265625 332.4634765625 577.6 333.95 584.373046875 339.56171875 591.9 343.375
M 603.975 348.175
Q 614.81640625 351.4 627 351.4 631.4291015625 351.4 635.675 350.975
M 650.85 347.925
Q 647.0625 349.096484375 643.1 349.875
M 660.975 343.925
Q 669.1029296875 339.976171875 676.375 333.95 679.490234375 331.3662109375 682.45 328.4 685.44609375 325.410546875 688.05 322.25
M 703.875 289.375
Q 702.1326171875 297.9955078125 698.5 305.825
M 704.15 258.05
Q 705.196484375 263.83046875 705.4 269.95"/>

<path id="Layer0_6_1_STROKES" stroke="#000000" stroke-width="7" stroke-linejoin="miter" stroke-linecap="butt" stroke-miterlimit="42" fill="none" d="
M 269.75 209.525
L 269.75 205.05 225.875 205.05
M 269.75 209.525
L 269.75 223.475 269.75 249.95 269.75 261.7 269.75 305.4 269.75 323.25
M 225.875 205.05
L 176.8 205.05 196.275 223.575
Q 197.02578125 222.57421875 197.95 221.65 203.2 216.4 210.6 216.4 218 216.4 223.25 221.65 228.0240234375 226.4240234375 228.45 232.975
L 253.15 234.6 269.75 223.475
M 239.15 305.4
L 244.3 305.4 252.625 305.4
M 228.45 232.975
Q 228.5 233.6291015625 228.5 234.3 228.5 241.7 223.25 246.95 218 252.2 210.6 252.2 203.2 252.2 197.95 246.95 192.7 241.7 192.7 234.3 192.7 228.202734375 196.275 223.575
M 176.8 205.05
L 168.6 205.05 168.6 216
M 190.6 273.25
Q 193.090234375 271.6 196.25 271.6 200.5 271.6 203.55 274.65 206.6 277.7 206.6 282 206.6 286.25 203.55 289.3 200.5 292.35 196.25 292.35 191.95 292.35 188.9 289.3 185.85 286.25 185.85 282 185.85 277.7 188.9 274.65 189.7087890625 273.8412109375 190.6 273.25 Z
M 168.6 253.9
L 168.6 305.4 194.1 305.4 218.8 305.4 229.9 305.4
M 168.6 253.9
L 168.6 216
M 229.9 305.4
L 239.15 305.4
M 218.8 323.25
L 218.8 305.4
M 244.3 323.25
L 244.3 305.4
M 194.1 305.4
L 194.1 323.25
M 168.6 336.7
L 168.6 305.4
M 269.75 305.4
L 252.625 305.4"/>

<path id="Layer0_6_2_STROKES" stroke="#000000" stroke-width="5" stroke-linejoin="miter" stroke-linecap="butt" stroke-miterlimit="42" fill="none" d="
M 225.875 205.05
L 238.1 219.9 252.2 220.85 269.75 209.525
M 239.475 274.4
L 239.15 305.4
M 242.825 262.525
L 250.3 249.95 269.75 249.95
M 190.6 273.25
L 178.9 254.45 168.6 253.9"/>

<path id="Layer0_6_3_STROKES" stroke="#000000" stroke-width="4" stroke-linejoin="miter" stroke-linecap="butt" stroke-miterlimit="42" fill="none" d="
M 242.825 262.525
Q 243.5037109375 262.91953125 244.1 263.5 245.95 265.4 245.95 268.05 245.95 270.65 244.1 272.55 242.2 274.4 239.55 274.4 239.5169921875 274.4 239.475 274.4
M 224.7 279.6
Q 222.9650390625 281 220.65 281 218.05 281 216.15 279.15 214.3 277.25 214.3 274.65 214.3 272 216.15 270.1 218.05 268.25 220.65 268.25 223.3 268.25 225.2 270.1 227.05 272 227.05 274.65 227.05 277.25 225.2 279.15 224.9599609375 279.3837890625 224.7 279.6 Z
M 239.475 274.4
Q 236.9259765625 274.3765625 235.05 272.55 233.2 270.65 233.2 268.05 233.2 265.4 235.05 263.5 236.95 261.65 239.55 261.65 241.368359375 261.65 242.825 262.525"/>

<path id="Layer0_6_4_STROKES" stroke="#000000" stroke-width="3" stroke-linejoin="miter" stroke-linecap="butt" stroke-miterlimit="42" fill="none" d="
M 252.625 305.4
L 251.9 282.6 260.55 263.1 269.75 261.7
M 168.6 216
L 179.85 225 180.6 234.775
Q 180.84453125 234.75 181.1 234.75 183.75 234.75 185.65 236.6 187.5 238.5 187.5 241.15 187.5 243.75 185.65 245.65 183.75 247.5 181.1 247.5 178.5 247.5 176.6 245.65 174.75 243.75 174.75 241.15 174.75 238.5 176.6 236.6 178.31328125 234.9318359375 180.6 234.775
M 229.9 305.4
L 230.1 286.15 224.7 279.6"/>

<path id="Layer0_8_1_STROKES" stroke="#0000FF" stroke-width="12" stroke-linejoin="miter" stroke-linecap="butt" stroke-miterlimit="42" fill="none" d="
M 152.3 381.1
Q 154.6 383.4 156.7 385.8 175.5 407.5 175.5 437.1 175.5 469.9 152.3 493.1 129.1 516.3 96.3 516.3 63.5 516.3 40.3 493.1 17.1 469.9 17.1 437.1 17.1 404.3 40.3 381.1 63.5 357.9 96.3 357.9 127.5 357.9 149.95 378.8
L 152.3 381.1 Z"/>

<path id="Layer0_8_2_STROKES" stroke="#000000" stroke-width="1" stroke-linejoin="miter" stroke-linecap="butt" stroke-miterlimit="42" fill="none" d="
M 83.075 441.125
Q 86.07265625 437.112890625 89.7 435.55 92.02265625 434.55 94.6 434.55 97.1009765625 434.55 99.35 435.5 103.0904296875 437.0533203125 106.15 441.2 106.7357421875 442.00234375 107.3 442.9 112.6 451.3 112.6 463.15 112.6 475 107.3 483.35 102.05 491.75 94.6 491.75 87.15 491.75 81.85 483.35 76.6 475 76.6 463.15 76.6 451.3 81.85 442.9 82.448046875 441.9578125 83.075 441.125 Z"/>

<path id="Layer0_12_1_STROKES" stroke="#0081C2" stroke-width="1" stroke-linejoin="miter" stroke-linecap="butt" stroke-miterlimit="42" fill="none" d="
M 91.1 682.8
L 91.25 682.8 144.9 616.3 144.9 616.05
M 107.1 692
L 114.55 682.8 144.9 645.15 161.1 625.05"/>

<path id="Layer0_12_2_STROKES" stroke="#0081C2" stroke-width="12" stroke-linejoin="miter" stroke-linecap="butt" stroke-miterlimit="42" fill="none" d="
M 204.05 618.95
Q 206.35 621.25 208.45 623.65 227.25 645.35 227.25 674.95 227.25 707.75 204.05 730.95 180.85 754.15 148.05 754.15 115.25 754.15 92.05 730.95 68.85 707.75 68.85 674.95 68.85 642.15 92.05 618.95 115.25 595.75 148.05 595.75 179.25 595.75 201.7 616.65
L 204.05 618.95 Z"/>
</defs>

<g transform="matrix( 1, 0, 0, 1, 48.9,49.8) ">
<use xlink:href="#Layer0_0_FILL"/>
</g>

<g transform="matrix( 1, 0, 0, 1, 48.9,49.8) ">
<use xlink:href="#Layer0_1_FILL"/>
</g>

<g transform="matrix( 1, 0, 0, 1, 48.9,49.8) ">
<use xlink:href="#Layer0_2_FILL"/>

<use xlink:href="#Layer0_2_1_STROKES"/>
</g>

<g transform="matrix( 1, 0, 0, 1, 48.9,49.8) ">
<use xlink:href="#Layer0_3_FILL"/>
</g>

<g transform="matrix( 1, 0, 0, 1, 48.9,49.8) ">
<use xlink:href="#Layer0_4_FILL"/>

<use xlink:href="#Layer0_4_1_STROKES"/>
</g>

<g transform="matrix( 1, 0, 0, 1, 48.9,49.8) ">
<use xlink:href="#Layer0_5_FILL"/>

<use xlink:href="#Layer0_5_1_STROKES"/>
</g>

<g transform="matrix( 1, 0, 0, 1, 48.9,49.8) ">
<use xlink:href="#Layer0_6_FILL"/>

<use xlink:href="#Layer0_6_1_STROKES"/>

<use xlink:href="#Layer0_6_2_STROKES"/>

<use xlink:href="#Layer0_6_3_STROKES"/>

<use xlink:href="#Layer0_6_4_STROKES"/>
</g>

<g transform="matrix( 1, 0, 0, 1, 48.9,49.8) ">
<use xlink:href="#Layer0_7_FILL"/>
</g>

<g transform="matrix( 1, 0, 0, 1, 48.9,49.8) ">
<use xlink:href="#Layer0_8_FILL"/>

<use xlink:href="#Layer0_8_1_STROKES"/>

<use xlink:href="#Layer0_8_2_STROKES"/>
</g>

<g transform="matrix( 15.23809814453125, 0, 0, 15.237380981445312, 269.1,415.25) ">
<mask id="Mask_Mask_1">
<g transform="matrix( 1, 0, 0, 1, 0,0) ">
<use xlink:href="#Mask_FlashAICB_Layer_1__Clip_Group__0_2_MASK_0_FILL"/>
</g>
</mask>

<g mask="url(#Mask_Mask_1)">
<g transform="matrix( 1, 0, 0, 1, 0,0) ">
<use xlink:href="#FlashAICB_Layer_1__Clip_Group__0_Layer2_0_FILL"/>
</g>

<g transform="matrix( 1, 0, 0, 1, 0,0) ">
<use xlink:href="#FlashAICB_Layer_1__Clip_Group__0_Layer2_1_FILL"/>
</g>
</g>
</g>

<g transform="matrix( 14.632080078125, 0, 0, 14.625045776367188, 484.1,415.25) ">
<mask id="Mask_Mask_2">
<g transform="matrix( 1, 0, 0, 1, 0,0) ">
<use xlink:href="#Mask_FlashAICB_0_Layer_1__Clip_Group__0_2_MASK_0_FILL"/>
</g>
</mask>

<g mask="url(#Mask_Mask_2)">
<g transform="matrix( 1, 0, 0, 1, 0,0) ">
<use xlink:href="#FlashAICB_0_Layer_1__Clip_Group__0_Layer2_0_FILL"/>
</g>

<g transform="matrix( 1, 0, 0, 1, 0,0) ">
<use xlink:href="#FlashAICB_0_Layer_1__Clip_Group__0_Layer2_1_FILL"/>
</g>

<g transform="matrix( 1, 0, 0, 1, 0,0) ">
<use xlink:href="#FlashAICB_0_Layer_1__Clip_Group__0_Layer2_2_FILL"/>
</g>

<g transform="matrix( 1, 0, 0, 1, 0,0) ">
<use xlink:href="#FlashAICB_0_Layer_1__Clip_Group__0_Layer2_3_FILL"/>
</g>
</g>
</g>

<g transform="matrix( 1, 0, 0, 1, 0,0) ">
<use xlink:href="#Layer0_11_FILL"/>
</g>

<g transform="matrix( 1, 0, 0, 1, 0,0) ">
<use xlink:href="#Layer0_12_FILL"/>

<use xlink:href="#Layer0_12_1_STROKES"/>

<use xlink:href="#Layer0_12_2_STROKES"/>
</g>
</svg>
